<svg xmlns="http://www.w3.org/2000/svg" viewBox="0 0 200 80" width="200" height="80">
  <!-- Геометрический паттерн слева (полосы) -->
  <g opacity="0.9">
    <line x1="10" y1="10" x2="30" y2="10" stroke="#1e3a8a" stroke-width="2"/>
    <line x1="10" y1="15" x2="35" y2="15" stroke="#1e3a8a" stroke-width="2"/>
    <line x1="10" y1="20" x2="40" y2="20" stroke="#1e3a8a" stroke-width="2"/>
    <line x1="10" y1="25" x2="45" y2="25" stroke="#1e3a8a" stroke-width="2"/>
    <line x1="10" y1="30" x2="50" y2="30" stroke="#1e3a8a" stroke-width="2"/>
    <line x1="10" y1="35" x2="55" y2="35" stroke="#1e3a8a" stroke-width="2"/>
    <line x1="10" y1="40" x2="60" y2="40" stroke="#1e3a8a" stroke-width="2"/>
    <line x1="10" y1="45" x2="55" y2="45" stroke="#1e3a8a" stroke-width="2"/>
    <line x1="10" y1="50" x2="50" y2="50" stroke="#1e3a8a" stroke-width="2"/>
    <line x1="10" y1="55" x2="45" y2="55" stroke="#1e3a8a" stroke-width="2"/>
    <line x1="10" y1="60" x2="40" y2="60" stroke="#1e3a8a" stroke-width="2"/>
    <line x1="10" y1="65" x2="35" y2="65" stroke="#1e3a8a" stroke-width="2"/>
    <line x1="10" y1="70" x2="30" y2="70" stroke="#1e3a8a" stroke-width="2"/>
  </g>
  
  <!-- Окно/дверь бытовки -->
  <rect x="35" y="20" width="30" height="40" fill="none" stroke="#1e3a8a" stroke-width="3"/>
  <line x1="50" y1="20" x2="50" y2="60" stroke="#1e3a8a" stroke-width="2"/>
  <line x1="35" y1="40" x2="65" y2="40" stroke="#1e3a8a" stroke-width="2"/>
  
  <!-- Текст "Мир" -->
  <text x="75" y="35" font-family="Arial, sans-serif" font-size="24" font-weight="bold" fill="#1e3a8a">Мир</text>
  
  <!-- Текст "БЫТОВОК" -->
  <text x="75" y="60" font-family="Arial, sans-serif" font-size="24" font-weight="bold" fill="#1e3a8a" letter-spacing="2">БЫТОВОК</text>
</svg>
